<svg style="height: 512px; width: 512px;" xmlns="http://www.w3.org/2000/svg" viewBox="0 0 512 512"><defs><filter id="shadow-1" height="300%" width="300%" x="-100%" y="-100%"><feFlood flood-color="rgba(163, 0, 21, 1)" result="flood"></feFlood><feComposite in="flood" in2="SourceGraphic" operator="atop" result="composite"></feComposite><feGaussianBlur in="composite" stdDeviation="20" result="blur"></feGaussianBlur><feOffset dx="10" dy="0" result="offset"></feOffset><feComposite in="SourceGraphic" in2="offset" operator="over"></feComposite></filter><radialGradient id="lorc-campfire-gradient-0"><stop offset="0%" stop-color="#000" stop-opacity="1"></stop><stop offset="100%" stop-color="#000" stop-opacity="1"></stop></radialGradient></defs><polygon points="477.7,384,256,512,34.3,384,34.3,128,256,0,477.7,128" fill="url(#lorc-campfire-gradient-0)"></polygon><g class="" style="" transform="translate(-6,-20)"><path d="M281.53 23.438c48.44 71.504-18.447 145.556-63.655 58.968 27.295 144.502-65.22 166.347-74.75 74.75-73.554 65.057-59.358 147.17-20.438 210.75l45.844-26.344c-12.004-18.318-17.995-42.502-15.31-66.218 25.688 39.43 106.855 10.088 97.124-59.938 10.695 32.074 37.802 28.97 65.78-20.5C278.07 297.622 337.95 364.248 378.032 333.5c1.47 11.97-2.95 25.657-10.592 38.063l46.968 12.53c55.122-47.503 79.71-135.97-3.812-175.53 39.08 60.478-13.1 105.064-60.72 41.468-38.546-72.133 82.366-113.394-68.343-226.593zM173.876 48.124c-64.128 32.333-14.642 60.51-14.03 92.344 44.122-38.935-3.722-53.508 14.03-92.345zm74.47 269.094L75 416.874c2.71 18.39 8.98 34.417 18.813 48.5l92-44.063-78.688 59.875c3.39 3.38 7.033 6.62 10.938 9.75L192.78 448c-.023-.738-.06-1.475-.06-2.22 0-37.22 30.495-67.56 67.81-67.56 10.53 0 20.527 2.413 29.44 6.717-2.323-13.414-7.28-27.104-14.72-39.28l-94.938 40.124 82.47-56.467c-4.34-4.55-9.166-8.64-14.438-12.094zm58.874 57.624c1.61 7.148 2.6 14.315 2.967 21.312l.22 3.938c11.13 12.042 17.937 28.09 17.937 45.687 0 7.795-1.356 15.276-3.813 22.25l91.345 24.376c4.642-6.327 8.588-12.768 11.844-19.375l-63.158-24.686 70.125 6.844c.866-2.948 1.61-5.923 2.22-8.938l-97.063-34.22L439 427.5c.156-5.772-.103-11.67-.813-17.72L307.22 374.845zm-46.69 22.062c-27.26 0-49.124 21.8-49.124 48.875 0 27.078 21.864 48.876 49.125 48.876 27.263 0 49.126-21.798 49.126-48.875 0-27.075-21.863-48.874-49.125-48.874zm-4.936 11.78c43.778.002 58.435 71.595 0 71.595 26.622-23.113 29.81-46.888 0-71.592zm.187 9.845c-21.616 17.916-19.304 35.177 0 51.94-42.375 0-31.745-51.94 0-51.94z" fill="#f5a623" fill-opacity="1" transform="translate(76.8, 76.8) scale(0.7, 0.7) rotate(0, 256, 256) skewX(0) skewY(0)" filter="url(#shadow-1)"></path></g><g class="" style="" transform="translate(297,292)"><g transform="translate(12.8, 12.8) scale(0.6, 0.6) rotate(0, 128, 128)"><circle cx="128" cy="128" r="128" fill="#000000" fill-opacity="1"></circle><circle stroke="#d0021b" stroke-opacity="1" fill="#000000" fill-opacity="1" stroke-width="18" cx="128" cy="128" r="101"></circle><path fill="#d0021b" fill-opacity="1" d="M128 204c16-24 68-78 68-94 0-24-20-39.824-36-40-16 0-32 10-32 30 0-20-16-30-32-30-16-.176-36 16-36 40 0 16 52 70 68 94z"></path></g></g><g font-family="Arial, Helvetica, sans-serif" font-size="8" font-style="normal" font-weight="bold" text-anchor="middle" text-decoration=" rgba(255, 255, 255, 1)" class="" style="" transform="translate(253,477)"><g><text stroke="rgba(0, 0, 0, 1)" stroke-width="2"><tspan x="0" y="0">by mhochstr</tspan><tspan x="0" y="8">based on: Lorc</tspan></text><text fill="rgba(255, 255, 255, 1)"><tspan x="0" y="0">by mhochstr</tspan><tspan x="0" y="8">based on: Lorc</tspan></text></g></g></svg>